<?xml version="1.0" standalone="no"?>
<!DOCTYPE svg PUBLIC "-//W3C//DTD SVG 20010904//EN"
 "http://www.w3.org/TR/2001/REC-SVG-20010904/DTD/svg10.dtd">
<svg version="1.0" xmlns="http://www.w3.org/2000/svg"
 width="700.000000pt" height="700.000000pt" viewBox="0 0 700.000000 700.000000"
 preserveAspectRatio="xMidYMid meet">
<metadata>
Created by potrace 1.14, written by Peter Selinger 2001-2017
</metadata>
<g transform="translate(0.000000,700.000000) scale(0.100000,-0.100000)"
fill="#000000" stroke="none">
<path d="M4750 5504 c-548 -65 -923 -325 -1029 -713 -34 -124 -46 -275 -33
-405 15 -141 42 -238 97 -351 113 -231 285 -395 745 -708 333 -227 379 -259
485 -342 382 -297 485 -474 473 -810 -6 -145 -27 -219 -88 -314 -117 -184
-402 -290 -694 -260 -128 13 -198 32 -301 84 -110 54 -178 112 -207 173 -12
26 -330 843 -708 1817 l-687 1769 -198 1 -197 0 -659 -1689 c-362 -930 -677
-1728 -699 -1775 -22 -46 -61 -114 -85 -151 -74 -111 -206 -222 -282 -236 -33
-6 -33 -7 -33 -63 l0 -56 565 0 566 0 -3 55 -3 55 -74 7 c-137 14 -262 56
-326 110 -73 62 -106 193 -87 346 23 176 64 315 209 695 l87 227 605 0 606 0
160 -438 c216 -592 224 -615 236 -692 13 -86 0 -139 -42 -174 -41 -35 -146
-65 -251 -73 l-88 -6 0 -56 0 -56 662 4 c632 3 915 -3 1356 -30 607 -38 1125
158 1372 516 192 279 211 719 47 1040 -119 229 -319 420 -747 710 -270 183
-605 418 -686 481 -101 78 -208 193 -257 276 -54 91 -78 175 -84 298 -9 188
35 317 143 426 205 206 598 233 869 59 256 -163 450 -524 510 -948 8 -56 15
-105 15 -109 0 -5 29 -8 65 -8 l65 0 0 193 c1 257 17 891 26 995 l7 83 -68 -3
-68 -3 -13 -60 c-25 -126 -57 -175 -114 -175 -38 0 -48 5 -260 117 -248 132
-368 162 -665 168 -110 2 -216 1 -235 -1z m-2261 -1699 l259 -710 -279 -3
c-153 -1 -404 -1 -558 0 l-279 3 257 670 c142 369 270 703 286 744 l28 74 13
-34 c8 -19 130 -353 273 -744z"/>
</g>
</svg>
