<?xml version="1.0" encoding="UTF-8"?>
<svg width="150px" height="150px" viewBox="0 0 150 150" version="1.1" xmlns="http://www.w3.org/2000/svg" xmlns:xlink="http://www.w3.org/1999/xlink">
    <title>Artboard</title>
    <g id="Artboard" stroke="none" stroke-width="1" fill="none" fill-rule="evenodd">
        <path d="M78.44,118.16 C74.76,118.16 71.28,118.18 68,118.22 C64.72,118.26 62.12,118.36 60.2,118.52 L60.2,118.52 L60.2,116.12 L60.603,116.1022 C64.4503333,115.912733 66.896,115.218667 67.94,114.02 L67.94,114.02 L68.0344904,113.903361 C69.0030119,112.617484 68.7115152,109.996364 67.16,106.04 L67.16,106.04 L59.965,86.36 L33.858,86.36 L30.68,94.64 L30.4733398,95.1907812 C28.3723633,100.838594 27.34125,105.135 27.38,108.08 C27.42,111.12 28.4,113.18 30.32,114.26 C32.24,115.34 34.8,115.96 38,116.12 L38,116.12 L38,118.52 L36.8759184,118.455102 C34.642449,118.332653 32.4971429,118.254286 30.44,118.22 C28.04,118.18 25.6,118.16 23.12,118.16 C21.36,118.16 19.7,118.18 18.14,118.22 C16.58,118.26 15.2,118.36 14,118.52 L14,118.52 L14,116.12 L14.2803704,116.05963 C15.8712346,115.677654 17.4977778,114.617778 19.16,112.88 C20.92,111.04 22.64,107.92 24.32,103.52 L24.32,103.52 L51.68,33.32 L52.3283333,33.3566667 C53.4227778,33.4122222 54.5866667,33.44 55.82,33.44 C57.3,33.44 58.68,33.4 59.96,33.32 L59.96,33.32 L89.12,108.44 L89.2809524,108.845306 C89.6311539,109.708744 89.9947229,110.486249 90.3716593,111.177819 C90.5784036,111.382654 90.7902714,111.583364 91.0061224,111.779592 C94.0442177,114.541497 98.0884354,115.922449 103.138776,115.922449 C107.242177,115.922449 110.714286,114.817687 113.555102,112.608163 C116.395918,110.398639 117.816327,107.084354 117.816327,102.665306 C117.816327,97.7727891 116.159184,93.7285714 112.844898,90.5326531 C109.530612,87.3367347 105.269388,84.0421769 100.061224,80.6489796 C96.352381,78.2027211 92.8802721,75.7564626 89.644898,73.3102041 C86.4095238,70.8639456 83.8251701,68.062585 81.8918367,64.9061224 C79.9585034,61.7496599 78.9918367,58.0013605 78.9918367,53.6612245 C78.9918367,48.6897959 80.2346939,44.6061224 82.7204082,41.4102041 C85.2061224,38.2142857 88.4809524,35.8469388 92.544898,34.3081633 C96.6088435,32.7693878 100.929252,32 105.506122,32 C110.161905,32 113.752381,32.4931973 116.277551,33.4795918 C118.802721,34.4659864 120.972789,35.5115646 122.787755,36.6163265 C123.734694,37.1687075 124.504082,37.5829932 125.095918,37.8591837 C125.687755,38.1353741 126.259864,38.2734694 126.812245,38.2734694 C128.07483,38.2734694 128.942857,36.537415 129.416327,33.0653061 L129.416327,33.0653061 L132.138776,33.0653061 C132.059864,34.5646259 131.961224,36.3598639 131.842857,38.4510204 C131.72449,40.5421769 131.645578,43.2843537 131.606122,46.677551 C131.571599,49.6465986 131.552179,53.4312713 131.547864,58.0315689 L131.547864,58.0315689 L131.546939,60.0530612 L128.82449,60.0530612 C128.508844,55.9496599 127.561905,51.9646259 125.983673,48.0979592 C124.405442,44.2312925 122.17619,41.055102 119.295918,38.5693878 C116.415646,36.0836735 112.884354,34.8408163 108.702041,34.8408163 C104.914286,34.8408163 101.797279,35.9061224 99.3510204,38.0367347 C96.9047619,40.1673469 95.6816327,43.1265306 95.6816327,46.9142857 C95.6816327,50.0707483 96.4707483,52.7734694 98.0489796,55.022449 C99.6272109,57.2714286 101.935374,59.4612245 104.973469,61.5918367 C108.011565,63.722449 111.70068,66.2870748 116.040816,69.2857143 C119.828571,71.7319728 123.221769,74.1782313 126.220408,76.6244898 C129.219048,79.0707483 131.62585,81.8326531 133.440816,84.9102041 C135.255782,87.9877551 136.163265,91.6571429 136.163265,95.9183673 C136.163265,101.126531 134.802041,105.427211 132.079592,108.820408 C129.357143,112.213605 125.786395,114.758503 121.367347,116.455102 C116.948299,118.151701 112.095238,119 106.808163,119 C103.577177,119 99.8,118.52 96.8,118.52 C96.7596104,118.52 96.7193285,118.518913 96.6791584,118.51679 C94.28,118.36 91.46,118.26 88.22,118.22 C84.98,118.18 81.72,118.16 78.44,118.16 Z M47.229,51.526 L34.779,83.96 L59.087,83.96 L47.229,51.526 Z" id="Combined-Shape" fill="#201908" fill-rule="nonzero"></path>
    </g>
</svg>